<svg xmlns="http://www.w3.org/2000/svg" width="100%" height="100%" viewBox="60 550 1400 370" shape-rendering="geometricPrecision" text-rendering="geometricPrecision"><metadata><c2pa:manifest xmlns:c2pa="http://c2pa.org/manifest">AABCHWp1bWIAAAAeanVtZGMycGEAEQAQgAAAqgA4m3EDYzJwYQAAAEH3anVtYgAAAEdqdW1kYzJtYQARABCAAACqADibcQN1cm46YzJwYTphNmNjOGIwNi0xYjdlLTRhMTMtYWU4ZC1hNzFlMjY4MDNmNDMAAAAB5Gp1bWIAAAApanVtZGMyYXMAEQAQgAAAqgA4m3EDYzJwYS5hc3NlcnRpb25zAAAAAO5qdW1iAAAAQWp1bWRjYm9yABEAEIAAAKoAOJtxE2MycGEuYWN0aW9ucy52MgAAAAAYYzJzaDxvzgHvBu9K5OyJHQxK49AAAAClY2JvcqFnYWN0aW9uc4GjZmFjdGlvbmxjMnBhLmNyZWF0ZWRtc29mdHdhcmVBZ2VudGhDYW52YSBBSXFkaWdpdGFsU291cmNlVHlwZXhTaHR0cDovL2N2LmlwdGMub3JnL25ld3Njb2Rlcy9kaWdpdGFsc291cmNldHlwZS9jb21wb3NpdGVXaXRoVHJhaW5lZEFsZ29yaXRobWljTWVkaWEAAADFanVtYgAAAEBqdW1kY2JvcgARABCAAACqADibcRNjMnBhLmhhc2guZGF0YQAAAAAYYzJzaMHVUi3MbskP7pv8oSGs914AAAB9Y2JvcqVqZXhjbHVzaW9uc4GiZXN0YXJ0GQETZmxlbmd0aBlYKGRuYW1lbmp1bWJmIG1hbmlmZXN0Y2FsZ2ZzaGEyNTZkaGFzaFgg8FcqHnLJ1ft9kJ2iovKQW62O3QoAnZAcOy8dttU/2axjcGFkSQAAAAAAAAAAAAAAAgtqdW1iAAAAJ2p1bWRjMmNsABEAEIAAAKoAOJtxA2MycGEuY2xhaW0udjIAAAAB3GNib3Knamluc3RhbmNlSUR4LHhtcDppaWQ6ZTViN2Q1MjUtOWE1Ni00NmJiLWI2YzAtNDJiMjA5Y2FlOWFjdGNsYWltX2dlbmVyYXRvcl9pbmZvo2RuYW1lZ2MycGEtcnNndmVyc2lvbmUwLjAuMHdvcmcuY29udGVudGF1dGguYzJwYV9yc2UwLjAuMGlzaWduYXR1cmV4TXNlbGYjanVtYmY9L2MycGEvdXJuOmMycGE6YTZjYzhiMDYtMWI3ZS00YTEzLWFlOGQtYTcxZTI2ODAzZjQzL2MycGEuc2lnbmF0dXJlcmNyZWF0ZWRfYXNzZXJ0aW9uc4GiY3VybHgpc2VsZiNqdW1iZj1jMnBhLmFzc2VydGlvbnMvYzJwYS5oYXNoLmRhdGFkaGFzaFggLg7pvAbr5Zws3ynPcBFy4ngLf9LyPK+A9/KqN47K0x5zZ2F0aGVyZWRfYXNzZXJ0aW9uc4GiY3VybHgqc2VsZiNqdW1iZj1jMnBhLmFzc2VydGlvbnMvYzJwYS5hY3Rpb25zLnYyZGhhc2hYIKE+4s9D9bJ1jjIMz9PkZZlti9V4q6FRcca8aqS5isVfaGRjOnRpdGxlZTMuc3ZnY2FsZ2ZzaGEyNTYAAD25anVtYgAAAChqdW1kYzJjcwARABCAAACqADibcQNjMnBhLnNpZ25hdHVyZQAAAD2JY2JvctKEWRKBogE4Jhghg1kFPzCCBTswggMjoAMCAQICEQC/u+KbOb1hFrj94DDnq7AfMA0GCSqGSIb3DQEBDQUAMCIxIDAeBgNVBAMTF1NpZ25pbmcgSW50ZXJtZWRpYXRlIENBMB4XDTI2MDcwNzIzNTEzMloXDTI2MDcxNTIzNTEzMlowODEOMAwGA1UEChMFQ2FudmExDjAMBgNVBAsTBUNhbnZhMRYwFAYDVQQDEw1DYW52YSBTaWduaW5nMIICIjANBgkqhkiG9w0BAQEFAAOCAg8AMIICCgKCAgEAygxaMjMf3gmRMYB80SejRb9Mp2Js5kGaBjgCDYEHI8h77BrvzRPoBG5R4HzC97khLvUbKBH98LuXVKCpEeeh1s34uVeptfgu8dDK1sRxQJyCjZUimIXyYwIlML4gf9Vi3jYppeoltNoVVtJB0LrVXbgXPKJ+dLP+dl3ziF47Bv7TfT8JdZ1eVn/qOlZymBF7pLvzP3uB2Nvs72N1Iwe2AKU9mXhSleRV8ztOL8Y7a6sYYqd4+Y5egyJ5MrCdn9K2tAq8ehWyvzS1ic8hWIR37xSj7n+BNS+dMhPBdUlRVeJ6Kwx8nbuFATZ+w+lSMpmy6AzEGOsN2IkXRnH+y4tZuxelRftM9B+sTBtOU7rjaJeI+/gB83jSp/TXqnx/ijxVTdoJioxS2COARtfDraMJeJNSXcmH0BnHQ/vmrnnPrjVpdkOeHS8pVcTBEXERjpju0/0wdGeeTOuK9tk1pYcZYRo2Ic2Lfg6SeI0EFqJZdQy8zkESubrCeA+ayhh0ldnevsyAAtyz/liqcAdlROPuZieLrP/6s9wavOlLddlyVPsrVoI6nHwZa+2eIFIHwcRhUWCASs61vKs96DsJM6yN3NjlgVLsA6ToL/8/jmtQTTO43iwQKBwSEBUvQ46lb9Ac3CY4ApGpY5KITz91LnSms8IEn5QDGfnEqNp9GXYA0ekCAwEAAaNWMFQwDgYDVR0PAQH/BAQDAgeAMBMGA1UdJQQMMAoGCCsGAQUFBwMEMAwGA1UdEwEB/wQCMAAwHwYDVR0jBBgwFoAUq4jaZojoh1/YlDrdtzaqU0BSmX4wDQYJKoZIhvcNAQENBQADggIBAI6HlATvj0PPtgmCLJgu5oMUmJdd+2MeotBZF1sjkg1tigB63nL+lKxw+e6lL/qRxnx8zxsv9F0F7vIUd4er9AHe+o9/2a5FLaxq6umnmNY4cy760e6qz4tSEjELDvElFTULRXKjPsTPJ4X4bLH4lOfCgVkLNQRd4ByKUUQwGHqp84oi2Mt8nz1Yr0pbokk4lT0eSlGVrmsfqOM6OaJKG4QlWiwz/mB78mxj6kMwkNJvozt3kGPhveyZO7mkgKxkHhmTp9/iqd7Y2G+3y+nv3S1rgE8fBc8OMIMEjt2jYnRj3I3GuZ4XbI6E53OJIggzAYnEh6YqS+OtBOkuRLSx+OCAWBx9j3FWSHDJf7CiRgE9DaVOoQMJf9gBbTXaW41Pg5L9G9H7bfaI2uMTqcjFiBLpRfghiD/IiOQXaGBcbADn+MTb4n78ig1Abt7WdSB2cZhJ1MnN8nb0CEudvMpqNduYvMOaOYVZmhb4edqQWoKmJ1VGeZ5L0P8/9DphvWPcDQHd4R/h2k7VlzQbglp4pe1h45ZPdu7LU/fntVulK6nSBZuAZqUA9zNToM+1clKFLB0vv7Ka8lC4LDU/jK26vtLC70nL5nP/v9gOcy0M7HRByBDlV3CwHd/pS4ZZ/pxwqR1naeK5+NLKHhSaTI1/Ajkdqgf3UiGlbiEz3QWCpq+rWQboMIIG5DCCBMygAwIBAgIUFywTzDN9IdeA2lFDlZW+XNZ6ANkwDQYJKoZIhvcNAQELBQAwbTELMAkGA1UEBhMCQVUxDDAKBgNVBAgTA05TVzEPMA0GA1UEBxMGU3lkbmV5MRMwEQYDVQQKEwpDYW52YSBQcm9kMRAwDgYDVQQLEwdTaWduaW5nMRgwFgYDVQQDEw9TaWduaW5nIENBIFByb2QwHhcNMjYwNzAxMDUzNzU1WhcNMjYwNzMxMDUzODI1WjAiMSAwHgYDVQQDExdTaWduaW5nIEludGVybWVkaWF0ZSBDQTCCAiIwDQYJKoZIhvcNAQEBBQADggIPADCCAgoCggIBANLWVW5TbqnPKqVhSWn/qdaHeJnSILmwrvXzy8+69zVojMQGv7FlLFjW7mD5lky7rmVoYmzfDf0Hr1Z1UY/VpmS6JsrLR6nj9mqA+izeh5OHfxvvi0OihhMP9mN87XH5msYIinxHZFhV2M1WNt0xvS5UTqSKJvbjv3ybmHrIhwAZH2JN5aCnoxvZCIlBoSRr06grK05lsecTiuZOPIiK1f3m0fpgf2clpdFq838qWYIHwclPxQRhJkQL1zLMkeQ8zuvnfDs6SAGRstO6SUuj42YcUFGvZTRwueVeBYZi/MxPtape2hljveaOaA34QpxMdXZIDZdvDeKOcQICJ3C99laxpPhQF82tXayfhrVVn16UgKVyQU7upIxbs19lDfF/PNYm6rtApbmgTP6e7mrSk+dQQDXTwdAnKIzmT8Rl9a1RKYi4i6aJkhiKx+Reww7nzfXeJvMTbLNQad1m4jm49+Mjr3AC9lxDaNERVwQHBc68w+cP+W0OziQnzE6zizHOaIY/fQFTD961MOmHxJr2BqTxYnzhOR8JVoEv0BydikKieMtZn8NrvFR52HIa8J0tL3RwCTieJM4zMco9IACVKJOyMCYi7WJp9lw64O12Gi7sySvwVA5uo4fh5SThQcKrDq+XFkNeB1oI77/1UG3iUtIbkmrC7j2PGH60pjBP9RSXAgMBAAGjggHFMIIBwTAOBgNVHQ8BAf8EBAMCAQYwEgYDVR0TAQH/BAgwBgEB/wIBADAdBgNVHQ4EFgQUq4jaZojoh1/YlDrdtzaqU0BSmX4wHwYDVR0jBBgwFoAUSlxt/ndQaL1jKWFk7YbiIcsE4x0wgdcGCCsGAQUFBwEBBIHKMIHHMEwGCCsGAQUFBzABhkBodHRwczovL3BraS5jYW52YS1pbnRlcm5hbC5jb20vdjEvcGtpL2NhbnZhLXByb2QvbDEvc2lnbmluZy9vY3NwMHcGCCsGAQUFBzAChmtodHRwczovL3BraS5jYW52YS1pbnRlcm5hbC5jb20vdjEvcGtpL2NhbnZhLXByb2QvbDEvc2lnbmluZy9pc3N1ZXIvMWRjNDVjODQtNGY5My1lMTBlLTRjMzYtZTdkZWFhMjU2MzkyL2RlcjCBgAYDVR0fBHkwdzB1oHOgcYZvaHR0cHM6Ly9wa2kuY2FudmEtaW50ZXJuYWwuY29tL3YxL3BraS9jYW52YS1wcm9kL2wxL3NpZ25pbmcvaXNzdWVyLzFkYzQ1Yzg0LTRmOTMtZTEwZS00YzM2LWU3ZGVhYTI1NjM5Mi9jcmwvZGVyMA0GCSqGSIb3DQEBCwUAA4ICAQDNfjIg6gXGHvpraWDf3zA0vWoyA0p0++hxxDULe7XR/8/R0LDBCDEHS4hX5TVmk0es6dCsuEKYpvpEtbUoHIlet5lGrIOFcNwcAcDAWoCdD+ypPaIwnC8PICtPMGxGwFG8SyFRmahDMYt3suZSpQnXnVc+dMrRbze3ZrT5740t6s8O5FeFlvLrUG3x9yJDgrbKSUsC8OmR+4aRY8HoZ5ZuCwOmCdV+7y/PGy+etJ4tQzTSoIWUguiTvCUoV/y6zp+dO2aSCNWUVbioKLLMSbDoAJMmZ+lhKvUWPoBXJwcLLo5prpV/50HP0pS0exBk2rss4rga+okUNT8HZyayQnjv3b+sYwNDULhUPRu0auY7+l8uad71K97Nzori06Tt9FDzFQ/bGk3mIKRc1Sy7mJKU62r37xs2UhyTkMTQ/boTMuU/doP2K2vsHbZHJC1yg6hFn7jrnUfjd+laXS+BlyltiN4TVQGFR6gUlovj81RzEUYp3F3V0q1xwvwRNITQbWP3KlVsMuEsonOEryDB+e+Pi7HJ0HsGKSltCYXOgz1M488sWy8cJZK1UO2lTl8p1tD2zspIfGjEdJyiusKh+Zskm48VvhMOgSNTdS4ZyubDsFYU5G8/aSbyI3sNKwLjm6ikkrtOpiGrLai5cdM/u3EurdZ/RLYMGEFy68oSOIV3tlkGSjCCBkYwggQuoAMCAQICEQDJtWzGUz0MB/MhdTvrUGHhMA0GCSqGSIb3DQEBDQUAMIGBMQswCQYDVQQGEwJBVTETMBEGA1UECgwKQ2FudmEgUHJvZDEXMBUGA1UECwwOQ2xvdWQgUGxhdGZvcm0xDDAKBgNVBAgMA05TVzElMCMGA1UEAwwcQ2FudmEgUHJvZCBSb290IENBIEdsb2JhbCBHMzEPMA0GA1UEBwwGU3lkbmV5MB4XDTI2MDUxNTAzMTI1NVoXDTI2MTExMTAzMTI1NVowbTELMAkGA1UEBhMCQVUxDDAKBgNVBAgTA05TVzEPMA0GA1UEBxMGU3lkbmV5MRMwEQYDVQQKEwpDYW52YSBQcm9kMRAwDgYDVQQLEwdTaWduaW5nMRgwFgYDVQQDEw9TaWduaW5nIENBIFByb2QwggIiMA0GCSqGSIb3DQEBAQUAA4ICDwAwggIKAoICAQD0MHZe4JEmHf4WkG5+tA+VwWcyYzsYw19aFaMnh/QZp8Awkci8GjqGdN09zzOrYEp6k9nAXTT0Y7H3tIUhpDIWy0jqysBROIYvKdGkz5Lp4MH3hB6nXnIiLwXpHfq/O95Cs8Q7wrmMoB1DPMLXBNfA/qRFqQeGVgL2UlxPchxkM1l1jEhSftxgZ09KpYFqcLeDEyPB2+nrfsX9qGuYLnmJOEZs1EtmLa5qjqbdGp7mlO8QawHQUmZ2QsD7YJDoSb7wU3XOHn/6h7ps5rVhTK516ryakEKf9P109m376yyUoyfGxqQD5E4KtlaTVsH0AWon+L3Mo0cpn/QxLikF+2iR2RGxyVsMUaQLwW0UXWlOw471623wcrsvkGZ+Ys40G+QOBrIHa/bq0cA6HZvxSNQt6I7+M0GDbGz2kdD3CobNaXXNGFt4y+qXjoMbx/NLfMhC5+frDobUF8RUSkCQ+Snzi95PibxJFHaInji8LrjueMnunf851089syyrXNqBaFQbyY/1tkESEeQmFudPrDl7qwh6sHSzWLOzrmdKZzJd49+ABzlAcOGU+b6l33JyP7TDzxGsZMRyQaEeQaYELwPIeENs1cIfFRLVlfQimCg0J6db37RK7GIG4z/yrvMbz9vnkk9ckzBF+3CzTtT8z/mtinltewY4QDpPdCfbPa/3fQIDAQABo4HLMIHIMBIGA1UdEwEB/wQIMAYBAf8CAQEwHwYDVR0jBBgwFoAUuzhkeWmWJGuw/pESspQ08s+cY4swHQYDVR0OBBYEFEpcbf53UGi9YylhZO2G4iHLBOMdMA4GA1UdDwEB/wQEAwIBhjBiBgNVHR8EWzBZMFegVaBThlFodHRwOi8vZDF1YWRuMHBqc2loOG0uY2xvdWRmcm9udC5uZXQvY3JsLzVlNDliYWRkLTBhNjYtNGYzYS1iM2NmLTFhNGZkMGY2MzVkMS5jcmwwDQYJKoZIhvcNAQENBQADggIBAKqOtwanq6lfW6XuFzlw/EJHJ2wVi9XY9dTjNZSPlIr3fnJ2qz2JRZ3f5VCa/+TmA9p2wv5aBNKSJyN4/uX1/qPxFunqykKFx3mNDD09JmxMEA1kTsjEePbhf5eBBlw2yg4lC3X+E/PTnx8VXTjwbG9jcaNGbJrD1/SZtYgjbti8YKnZMOeMh93wtv6NttshgFRcxUmS6sbvvhcAKi3U/YsMnbtSBJJH1dirr6rQuGSaghdLbxawcLd1OfMnw8aKe+G+4TOuKjQ10dwvMKwlBRTcnNJuun+vBvPujqfNmt5mc+0Hu2pDwtHB+LbmpC+hx2ksSmgTCLMjC+oiJUeAFnq1EVJlB++nqKzC4uD3XayTG1jvZ8JlJeZwdCIbo16DWmDP5eUrLiDJ8t/cR46hWzlmk549H1f9UZqiTMCyODjrnO0xbwm9yynPJCMvcN98sqWjOGSWQQPUXAqsMdNMzm1hWdjNzxntt5q9uYRa9rvYcmeu8M9Ek8Lz1sWoEaVcpkdI/XOZBY1nJC/xItlK22e39DS/JQibDVZgKsfkOkZ+tXn3rlD7zxpuJMvUtBmRnhA3iqZxa50+XEk1P2fxX2Ke4A025hkk4oVJY2+JZjWgD1qYvXZ5WRHZSU8SMiwx1iiw2PXcF8H/yEeEisZlIGM21Lc4gzhUmRLxrrTsDbbvoWNwYWRZKO8AAAAAAAAAAAAAAAAAAAAAAAAAAAAAAAAAAAAAAAAAAAAAAAAAAAAAAAAAAAAAAAAAAAAAAAAAAAAAAAAAAAAAAAAAAAAAAAAAAAAAAAAAAAAAAAAAAAAAAAAAAAAAAAAAAAAAAAAAAAAAAAAAAAAAAAAAAAAAAAAAAAAAAAAAAAAAAAAAAAAAAAAAAAAAAAAAAAAAAAAAAAAAAAAAAAAAAAAAAAAAAAAAAAAAAAAAAAAAAAAAAAAAAAAAAAAAAAAAAAAAAAAAAAAAAAAAAAAAAAAAAAAAAAAAAAAAAAAAAAAAAAAAAAAAAAAAAAAAAAAAAAAAAAAAAAAAAAAAAAAAAAAAAAAAAAAAAAAAAAAAAAAAAAAAAAAAAAAAAAAAAAAAAAAAAAAAAAAAAAAAAAAAAAAAAAAAAAAAAAAAAAAAAAAAAAAAAAAAAAAAAAAAAAAAAAAAAAAAAAAAAAAAAAAAAAAAAAAAAAAAAAAAAAAAAAAAAAAAAAAAAAAAAAAAAAAAAAAAAAAAAAAAAAAAAAAAAAAAAAAAAAAAAAAAAAAAAAAAAAAAAAAAAAAAAAAAAAAAAAAAAAAAAAAAAAAAAAAAAAAAAAAAAAAAAAAAAAAAAAAAAAAAAAAAAAAAAAAAAAAAAAAAAAAAAAAAAAAAAAAAAAAAAAAAAAAAAAAAAAAAAAAAAAAAAAAAAAAAAAAAAAAAAAAAAAAAAAAAAAAAAAAAAAAAAAAAAAAAAAAAAAAAAAAAAAAAAAAAAAAAAAAAAAAAAAAAAAAAAAAAAAAAAAAAAAAAAAAAAAAAAAAAAAAAAAAAAAAAAAAAAAAAAAAAAAAAAAAAAAAAAAAAAAAAAAAAAAAAAAAAAAAAAAAAAAAAAAAAAAAAAAAAAAAAAAAAAAAAAAAAAAAAAAAAAAAAAAAAAAAAAAAAAAAAAAAAAAAAAAAAAAAAAAAAAAAAAAAAAAAAAAAAAAAAAAAAAAAAAAAAAAAAAAAAAAAAAAAAAAAAAAAAAAAAAAAAAAAAAAAAAAAAAAAAAAAAAAAAAAAAAAAAAAAAAAAAAAAAAAAAAAAAAAAAAAAAAAAAAAAAAAAAAAAAAAAAAAAAAAAAAAAAAAAAAAAAAAAAAAAAAAAAAAAAAAAAAAAAAAAAAAAAAAAAAAAAAAAAAAAAAAAAAAAAAAAAAAAAAAAAAAAAAAAAAAAAAAAAAAAAAAAAAAAAAAAAAAAAAAAAAAAAAAAAAAAAAAAAAAAAAAAAAAAAAAAAAAAAAAAAAAAAAAAAAAAAAAAAAAAAAAAAAAAAAAAAAAAAAAAAAAAAAAAAAAAAAAAAAAAAAAAAAAAAAAAAAAAAAAAAAAAAAAAAAAAAAAAAAAAAAAAAAAAAAAAAAAAAAAAAAAAAAAAAAAAAAAAAAAAAAAAAAAAAAAAAAAAAAAAAAAAAAAAAAAAAAAAAAAAAAAAAAAAAAAAAAAAAAAAAAAAAAAAAAAAAAAAAAAAAAAAAAAAAAAAAAAAAAAAAAAAAAAAAAAAAAAAAAAAAAAAAAAAAAAAAAAAAAAAAAAAAAAAAAAAAAAAAAAAAAAAAAAAAAAAAAAAAAAAAAAAAAAAAAAAAAAAAAAAAAAAAAAAAAAAAAAAAAAAAAAAAAAAAAAAAAAAAAAAAAAAAAAAAAAAAAAAAAAAAAAAAAAAAAAAAAAAAAAAAAAAAAAAAAAAAAAAAAAAAAAAAAAAAAAAAAAAAAAAAAAAAAAAAAAAAAAAAAAAAAAAAAAAAAAAAAAAAAAAAAAAAAAAAAAAAAAAAAAAAAAAAAAAAAAAAAAAAAAAAAAAAAAAAAAAAAAAAAAAAAAAAAAAAAAAAAAAAAAAAAAAAAAAAAAAAAAAAAAAAAAAAAAAAAAAAAAAAAAAAAAAAAAAAAAAAAAAAAAAAAAAAAAAAAAAAAAAAAAAAAAAAAAAAAAAAAAAAAAAAAAAAAAAAAAAAAAAAAAAAAAAAAAAAAAAAAAAAAAAAAAAAAAAAAAAAAAAAAAAAAAAAAAAAAAAAAAAAAAAAAAAAAAAAAAAAAAAAAAAAAAAAAAAAAAAAAAAAAAAAAAAAAAAAAAAAAAAAAAAAAAAAAAAAAAAAAAAAAAAAAAAAAAAAAAAAAAAAAAAAAAAAAAAAAAAAAAAAAAAAAAAAAAAAAAAAAAAAAAAAAAAAAAAAAAAAAAAAAAAAAAAAAAAAAAAAAAAAAAAAAAAAAAAAAAAAAAAAAAAAAAAAAAAAAAAAAAAAAAAAAAAAAAAAAAAAAAAAAAAAAAAAAAAAAAAAAAAAAAAAAAAAAAAAAAAAAAAAAAAAAAAAAAAAAAAAAAAAAAAAAAAAAAAAAAAAAAAAAAAAAAAAAAAAAAAAAAAAAAAAAAAAAAAAAAAAAAAAAAAAAAAAAAAAAAAAAAAAAAAAAAAAAAAAAAAAAAAAAAAAAAAAAAAAAAAAAAAAAAAAAAAAAAAAAAAAAAAAAAAAAAAAAAAAAAAAAAAAAAAAAAAAAAAAAAAAAAAAAAAAAAAAAAAAAAAAAAAAAAAAAAAAAAAAAAAAAAAAAAAAAAAAAAAAAAAAAAAAAAAAAAAAAAAAAAAAAAAAAAAAAAAAAAAAAAAAAAAAAAAAAAAAAAAAAAAAAAAAAAAAAAAAAAAAAAAAAAAAAAAAAAAAAAAAAAAAAAAAAAAAAAAAAAAAAAAAAAAAAAAAAAAAAAAAAAAAAAAAAAAAAAAAAAAAAAAAAAAAAAAAAAAAAAAAAAAAAAAAAAAAAAAAAAAAAAAAAAAAAAAAAAAAAAAAAAAAAAAAAAAAAAAAAAAAAAAAAAAAAAAAAAAAAAAAAAAAAAAAAAAAAAAAAAAAAAAAAAAAAAAAAAAAAAAAAAAAAAAAAAAAAAAAAAAAAAAAAAAAAAAAAAAAAAAAAAAAAAAAAAAAAAAAAAAAAAAAAAAAAAAAAAAAAAAAAAAAAAAAAAAAAAAAAAAAAAAAAAAAAAAAAAAAAAAAAAAAAAAAAAAAAAAAAAAAAAAAAAAAAAAAAAAAAAAAAAAAAAAAAAAAAAAAAAAAAAAAAAAAAAAAAAAAAAAAAAAAAAAAAAAAAAAAAAAAAAAAAAAAAAAAAAAAAAAAAAAAAAAAAAAAAAAAAAAAAAAAAAAAAAAAAAAAAAAAAAAAAAAAAAAAAAAAAAAAAAAAAAAAAAAAAAAAAAAAAAAAAAAAAAAAAAAAAAAAAAAAAAAAAAAAAAAAAAAAAAAAAAAAAAAAAAAAAAAAAAAAAAAAAAAAAAAAAAAAAAAAAAAAAAAAAAAAAAAAAAAAAAAAAAAAAAAAAAAAAAAAAAAAAAAAAAAAAAAAAAAAAAAAAAAAAAAAAAAAAAAAAAAAAAAAAAAAAAAAAAAAAAAAAAAAAAAAAAAAAAAAAAAAAAAAAAAAAAAAAAAAAAAAAAAAAAAAAAAAAAAAAAAAAAAAAAAAAAAAAAAAAAAAAAAAAAAAAAAAAAAAAAAAAAAAAAAAAAAAAAAAAAAAAAAAAAAAAAAAAAAAAAAAAAAAAAAAAAAAAAAAAAAAAAAAAAAAAAAAAAAAAAAAAAAAAAAAAAAAAAAAAAAAAAAAAAAAAAAAAAAAAAAAAAAAAAAAAAAAAAAAAAAAAAAAAAAAAAAAAAAAAAAAAAAAAAAAAAAAAAAAAAAAAAAAAAAAAAAAAAAAAAAAAAAAAAAAAAAAAAAAAAAAAAAAAAAAAAAAAAAAAAAAAAAAAAAAAAAAAAAAAAAAAAAAAAAAAAAAAAAAAAAAAAAAAAAAAAAAAAAAAAAAAAAAAAAAAAAAAAAAAAAAAAAAAAAAAAAAAAAAAAAAAAAAAAAAAAAAAAAAAAAAAAAAAAAAAAAAAAAAAAAAAAAAAAAAAAAAAAAAAAAAAAAAAAAAAAAAAAAAAAAAAAAAAAAAAAAAAAAAAAAAAAAAAAAAAAAAAAAAAAAAAAAAAAAAAAAAAAAAAAAAAAAAAAAAAAAAAAAAAAAAAAAAAAAAAAAAAAAAAAAAAAAAAAAAAAAAAAAAAAAAAAAAAAAAAAAAAAAAAAAAAAAAAAAAAAAAAAAAAAAAAAAAAAAAAAAAAAAAAAAAAAAAAAAAAAAAAAAAAAAAAAAAAAAAAAAAAAAAAAAAAAAAAAAAAAAAAAAAAAAAAAAAAAAAAAAAAAAAAAAAAAAAAAAAAAAAAAAAAAAAAAAAAAAAAAAAAAAAAAAAAAAAAAAAAAAAAAAAAAAAAAAAAAAAAAAAAAAAAAAAAAAAAAAAAAAAAAAAAAAAAAAAAAAAAAAAAAAAAAAAAAAAAAAAAAAAAAAAAAAAAAAAAAAAAAAAAAAAAAAAAAAAAAAAAAAAAAAAAAAAAAAAAAAAAAAAAAAAAAAAAAAAAAAAAAAAAAAAAAAAAAAAAAAAAAAAAAAAAAAAAAAAAAAAAAAAAAAAAAAAAAAAAAAAAAAAAAAAAAAAAAAAAAAAAAAAAAAAAAAAAAAAAAAAAAAAAAAAAAAAAAAAAAAAAAAAAAAAAAAAAAAAAAAAAAAAAAAAAAAAAAAAAAAAAAAAAAAAAAAAAAAAAAAAAAAAAAAAAAAAAAAAAAAAAAAAAAAAAAAAAAAAAAAAAAAAAAAAAAAAAAAAAAAAAAAAAAAAAAAAAAAAAAAAAAAAAAAAAAAAAAAAAAAAAAAAAAAAAAAAAAAAAAAAAAAAAAAAAAAAAAAAAAAAAAAAAAAAAAAAAAAAAAAAAAAAAAAAAAAAAAAAAAAAAAAAAAAAAAAAAAAAAAAAAAAAAAAAAAAAAAAAAAAAAAAAAAAAAAAAAAAAAAAAAAAAAAAAAAAAAAAAAAAAAAAAAAAAAAAAAAAAAAAAAAAAAAAAAAAAAAAAAAAAAAAAAAAAAAAAAAAAAAAAAAAAAAAAAAAAAAAAAAAAAAAAAAAAAAAAAAAAAAAAAAAAAAAAAAAAAAAAAAAAAAAAAAAAAAAAAAAAAAAAAAAAAAAAAAAAAAAAAAAAAAAAAAAAAAAAAAAAAAAAAAAAAAAAAAAAAAAAAAAAAAAAAAAAAAAAAAAAAAAAAAAAAAAAAAAAAAAAAAAAAAAAAAAAAAAAAAAAAAAAAAAAAAAAAAAAAAAAAAAAAAAAAAAAAAAAAAAAAAAAAAAAAAAAAAAAAAAAAAAAAAAAAAAAAAAAAAAAAAAAAAAAAAAAAAAAAAAAAAAAAAAAAAAAAAAAAAAAAAAAAAAAAAAAAAAAAAAAAAAAAAAAAAAAAAAAAAAAAAAAAAAAAAAAAAAAAAAAAAAAAAAAAAAAAAAAAAAAAAAAAAAAAAAAAAAAAAAAAAAAAAAAAAAAAAAAAAAAAAAAAAAAAAAAAAAAAAAAAAAAAAAAAAAAAAAAAAAAAAAAAAAAAAAAAAAAAAAAAAAAAAAAAAAAAAAAAAAAAAAAAAAAAAAAAAAAAAAAAAAAAAAAAAAAAAAAAAAAAAAAAAAAAAAAAAAAAAAAAAAAAAAAAAAAAAAAAAAAAAAAAAAAAAAAAAAAAAAAAAAAAAAAAAAAAAAAAAAAAAAAAAAAAAAAAAAAAAAAAAAAAAAAAAAAAAAAAAAAAAAAAAAAAAAAAAAAAAAAAAAAAAAAAAAAAAAAAAAAAAAAAAAAAAAAAAAAAAAAAAAAAAAAAAAAAAAAAAAAAAAAAAAAAAAAAAAAAAAAAAAAAAAAAAAAAAAAAAAAAAAAAAAAAAAAAAAAAAAAAAAAAAAAAAAAAAAAAAAAAAAAAAAAAAAAAAAAAAAAAAAAAAAAAAAAAAAAAAAAAAAAAAAAAAAAAAAAAAAAAAAAAAAAAAAAAAAAAAAAAAAAAAAAAAAAAAAAAAAAAAAAAAAAAAAAAAAAAAAAAAAAAAAAAAAAAAAAAAAAAAAAAAAAAAAAAAAAAAAAAAAAAAAAAAAAAAAAAAAAAAAAAAAAAAAAAAAAAAAAAAAAAAAAAAAAAAAAAAAAAAAAAAAAAAAAAAAAAAAAAAAAAAAAAAAAAAAAAAAAAAAAAAAAAAAAAAAAAAAAAAAAAAAAAAAAAAAAAAAAAAAAAAAAAAAAAAAAAAAAAAAAAAAAAAAAAAAAAAAAAAAAAAAAAAAAAAAAAAAAAAAAAAAAAAAAAAAAAAAAAAAAAAAAAAAAAAAAAAAAAAAAAAAAAAAAAAAAAAAAAAAAAAAAAAAAAAAAAAAAAAAAAAAAAAAAAAAAAAAAAAAAAAAAAAAAAAAAAAAAAAAAAAAAAAAAAAAAAAAAAAAAAAAAAAAAAAAAAAAAAAAAAAAAAAAAAAAAAAAAAAAAAAAAAAAAAAAAAAAAAAAAAAAAAAAAAAAAAAAAAAAAAAAAAAAAAAAAAAAAAAAAAAAAAAAAAAAAAAAAAAAAAAAAAAAAAAAAAAAAAAAAAAAAAAAAAAAAAAAAAAAAAAAAAAAAAAAAAAAAAAAAAAAAAAAAAAAAAAAAAAAAAAAAAAAAAAAAAAAAAAAAAAAAAAAAAAAAAAAAAAAAAAAAAAAAAAAAAAAAAAAAAAAAAAAAAAAAAAAAAAAAAAAAAAAAAAAAAAAAAAAAAAAAAAAAAAAAAAAAAAAAAAAAAAAAAAAAAAAAAAAAAAAAAAAAAAAAAAAAAAAAAAAAAAAAAAAAAAAAAAAAAAAAAAAAAAAAAAAAAAAAAAAAAAAAAAAAAAAAAAAAAAAAAAAAAAAAAAAAAAAAAAAAAAAAAAAAAAAAAAAAAAAAAAAAAAAAAAAAAAAAAAAAAAAAAAAAAAAAAAAAAAAAAAAAAAAAAAAAAAAAAAAAAAAAAAAAAAAAAAAAAAAAAAAAAAAAAAAAAAAAAAAAAAAAAAAAAAAAAAAAAAAAAAAAAAAAAAAAAAAAAAAAAAAAAAAAAAAAAAAAAAAAAAAAAAAAAAAAAAAAAAAAAAAAAAAAAAAAAAAAAAAAAAAAAAAAAAAAAAAAAAAAAAAAAAAAAAAAAAAAAAAAAAAAAAAAAAAAAAAAAAAAAAAAAAAAAAAAAAAAAAAAAAAAAAAAAAAAAAAAAAAAAAAAAAAAAAAAAAAAAAAAAAAAAAAAAAAAAAAAAAAAAAAAAAAAAAAAAAAAAAAAAAAAAAAAAAAAAAAAAAAAAAAAAAAAAAAAAAAAAAAAAAAAAAAAAAAAAAAAAAAAAAAAAAAAAAAAAAAAAAAAAAAAAAAAAAAAAAAAAAAAAAAAAAAAAAAAAAAAAAAAAAAAAAAAAAAAAAAAAAAAAAAAAAAAAAAAAAAAAAAAAAAAAAAAAAAAAAAAAAAAAAAAAAAAAAAAAAAAAAAAAAAAAAAAAAAAAAAAAAAAAAAAAAAAAAAAAAAAAAAAAAAAAAAAAAAAAAAAAAAAAAAAAAAAAAAAAAAAAAAAAAAAAAAAAAAAAAAAAAAAAAAAAAAAAAAAAAAAAAAAAAAAAAAAAAAAAAAAAAAAAAAAAAAAAAAAAAAAAAAAAAAAAAAAAAAAAAAAAAAAAAAAAAAAAAAAAAAAAAAAAAAAAAAAAAAAAAAAAAAAAAAAAAAAAAAAAAAAAAAAAAAAAAAAAAAAAAAAAAAAAAAAAAAAAAAAAAAAAAAAAAAAAAAAAAAAAAAAAAAAAAAAAAAAAAAAAAAAAAAAAAAAAAAAAAAAAAAAAAAAAAAAAAAAAAAAAAAAAAAAAAAAAAAAAAAAAAAAAAAAAAAAAAAAAAAAAAAAAAAAAAAAAAAAAAAAAAAAAAAAAAAAAAAAAAAAAAAAAAAAAAAAAAAAAAAAAAAAAAAAAAAAAAAAAAAAAAAAAAAAAAAAAAAAAAAAAAAAAAAAAAAAAAAAAAAAAAAAAAAAAAAAAAAAAAAAAAAAAAAAAAAAAAAAAAAAAAAAAAAAAAAAAAAAAAAAAAAAAAAAAAAAAAAAAAAAAAAAAAAAAAAAAAAAAAAAAAAAAAAAAAAAAAAAAAAAAAAAAAAAAAAAAAAAAAAAAAAAAAAAAAAAAAAAAAAAAAAAAAAAAAAAAAAAAAAAAAAAAAAAAAAAAAAAAAAAAAAAAAAAAAAAAAAAAAAAAAAAAAAAAAAAAAAAAAAAAAAAAAAAAAAAAAAAAAAAAAAAAAAAAAAAAAAAAAAAAAAAAAAAAAAAAAAAAAAAAAAAAAAAAAAAAAAAAAAAAAAAAAAAAAAAAAAAAAAAAAAAAAAAAAAAAAAAAAAAAAAAAAAAAAAAAAAAAAAAAAAAAAAAAAAAAAAAAAAAAAAAAAAAAAAAAAAAAAAAAAAAAAAAAAAAAAAAAAAAAAAAAAAAAAAAAAAAAAAAAAAAAAAAAAAAAAAAAAAAAAAAAAAAAAAAAAAAAAAAAAAAAAAAAAAAAAAAAAAAAAAAAAAAAAAAAAAAAAAAAAAAAAAAAAAAAAAAAAAAAAAAAAAAAAAAAAAAAAAAAAAAAAAAAAAAAAAAAAAAAAAAAAAAAAAAAAAAAAAAAAAAAAAAAAAAAAAAAAAAAAAAAAAAAAAAAAAAAAAAAAAAAAAAAAAAAAAAAAAAAAAAAAAAAAAAAAAAAAAAAAAAAAAAAAAAAAAAAAAAAAAAAAAAAAAAAAAAAAAAAAAAAAAAAAAAAAAAAAAAAAAAAAAAAAAAAAAAAAAAAAAAAAAAAAAAAAAAAAAAAAAAAAAAAAAAAAAAAAAAAAAAAAAAAAAAAAAAAAAAAAAAAAAAAAAAAAAAAAAAAAAAAAAAAAAAAAAAAAAAAAAAAAAAAAAAAAAAAAAAAAAAAAAAAAAAAAAAAAAAAAAAAAAAAAAAAAAAAAAAAAAAAAAAAAAAAAAAAAAAAAAAAAAAAAAAAAAAAAAAAAAAAAAAAAAAAAAAAAAAAAAAAAAAAAAAAAAAAAAAAAAAAAAAAAAAAAAAAAAAAAAAAAAAAAAAAAAAAAAAAAAAAAAAAAAAAAAAAAAAAAAAAAAAAAAAAAAAAAAAAAAAAAAAAAAAAAAAAAAAAAAAAAAAAAAAAAAAAAAAAAAAAAAAAAAAAAAAAAAAAAAAAAAAAAAAAAAAAAAAAAAAAAAAAAAAAAAAAAAAAAAAAAAAAAAAAAAAAAAAAAAAAAAAAAAAAAAAAAAAAAAAAAAAAAAAAAAAAAAAAAAAAAAAAAAAAAAAAAAAAAAAAAAAAAAAAAAAAAAAAAAAAAAAAAAAAAAAAAAAAAAAAAAAAAAAAAAAAAAAAAAAAAAAAAAAAAAAAAAAAAAAAAAAAAAAAAAAAAAAAAAAAAAAAAAAAAAAAAAAAAAAAAAAAAAAAAAAAAAAAAAAAAAAAAAAAAAAAAAAAAAAAAAAAAAAAAAAAAAAAAAAAAAAAAAAAAAAAAAAAAAAAAAAAAAAAAAAAAAAAAAAAAAAAAAAAAAAAAAAAAAAAAAAAAAAAAAAAAAAAAAAAAAAAAAAAAAAAAAAAAAAAAAAAAAAAAAAAAAAAAAAAAAAAAAAAAAAAAAAAAAAAAAAAAAAAAAAAAAAAAAAAAAAAAAAAAAAAAAAAAAAAAAAAAAAAAAAAAAAAAAAAAAAAAAAAAAAAAAAAAAAAAAAAAAAAAAAAAAAAAAAAAAAAAAAAAAAAAAAAAAAAAAAAAAAAAAAAAAAAAAAAAAAAAAAAAAAAAAAAAAAAAAAAAAAAAAAAAAAAAAAAAAAAAAAAAAAAAAAAAAAAAAAAAAAAAAAAAAAAAAAAAAAAAAAAAAAAAAAAAAAAAAAAAAAAAAAAAAAAAAAAAAAAAAAAAAAAAAAAAAAAAAAAAAAAAAAAAAAAAAAAAAAAAAAAAAAAAAAAAAAAAAAAAAAAAAAAAAAAAAAAAAAAAAAAAAAAAAAAAAAAAAAAAAAAAAAAAAAAAAAAAAAAAAAAAAAAAAAAAAAAAAAAAAAAAAAAAAAAAAAAAAAAAAAAAAAAAAAAAAAAAAAAAAAAAAAAAAAAAAAAAAAAAAAAAAAAAAAAAAAAAAAAAAAAAAAAAAAAAAAAAAAAAAAAAAAAAAAAAAAAAAAAAAAAAAAAAAAAAAAAAAAAAAAAAAAAAAAAAAAAAAAAAAAAAAAAAAAAAAAAAAAAAAAAAAAAAAAAAAAAAAAAAAAAAAAAAAAAAAAAAAAAAAAAAAAAAAAAAAAAAAAAAAAAAAAAAAAAAAAAAAAAAAAAAAAAAAAAAAAAAAAAAAAAAAAAAAAAAAAAAAAAAAAAAAAAAAAAAAAAAAAAAAAAAAAAAAAAAAAAAAAAAAAAAAAAAAAAAAAAAAAAAAAAAAAAAAAAAAAAAAAAAAAAAAAAAAAAAAAAAAAAAAAAAAAAAAAAAAAAAAAAAAAAAAAAAAAAAAAAAAAAAAAAAAAAAAAAAAAAAAAAAAAAAAAAAAAAAAAAAAAAAAAAAAAAAAAAAAAAAAAAAAAAAAAAAAAAAAAAAAAAAAAAAAAAAAAAAAAAAAAAAAAAAAAAAAAAAAAAAAAAAAAAAAAAAAAAAAAAAAAAAAAAAAAAAAAAAAAAAAAAAAAAAAAAAAAAAAAAAAAAAAAAAAAAAAAAAAAAAAAAAAAAAAAAAAAAAAAAAAAAAAAAAAAAAAAAAAAAAAAAAAAAAAAAAAAAAAAAAAAAAAAAAAAAAAAAAAAAAAAAAAAAAAAAAAAAAAAAAAAAAAAAAAAAAAAAAAAAAAAAAAAAAAAAAAAAAAAAAAAAAAAAAAAAAAAAAAAAAAAAAAAAAAAAAAAAAAAAAAAAAAAAAAAAAAAAAAAAAAAAAAAAAAAAAAAAAAAAAAAAAAAAAAAAAAAAAAAAAAAAAAAAAAAAAAAAAAAAAAAAAAAAAAAAAAAAAAAAAAAAAAAAAAAAAAAAAAAAAAAAAAAAAAAAAAAAAAAAAAAAAAAAAAAAAAAAAAAAAAAAAAAAAAAAAAAAAAAAAAAAAAAAAAAAAAAAAAAAAAAAAAAAAAAAAAAAAAAAAAAAAAAAAAAAAAAAAAAAAAAAAAAAAAAAAAAAAAAAAAAAAAAAAAAAAAAAAAAAAAAAAAAAAAAAAAAAAAAAAAAAAAAAAAAAAAAAAAAAAAAAAAAAAAAAAAAAAAAAAAAAAAAAAAAAAAAAAAAAAAAAAAAAAAAAAAAAAAAAAAAAAAAAAAAAAAAAAAAAAAAAAAAAAAAAAAAAAAAAAAAAAAAAAAAAAAAAAAAAAAAAAAAAAAAAAAAAAAAAAAAAAAAAAAAAAAAAAAAAAAAAAAAAAAAAAAAAAAAAAAAAAAAAAAAAAAAAAAAAAAAAAAAAAAAAAAAAAAAAAAAAAAAAAAAAAAAAAAAAAAAAAAAAAAAAAAAAAAAAAAAAAAAAAAAAAAAAAAAAAAAAAAAAAAAAAAAAAAAAAAAAAAAAAAAAAAAAAAAAAAAAAAAAAAAAAAAAAAAAAAAAAAAAAAAAAAAAAAAAAAAAAAAAAAAAAAAAAAAAAAAAAAAAAAAAAAAAAAAAAAAAAAAAAAAAAAAAAAAAAAAAAAAAAAAAAAAAAAAAAAAAAAAAAAAAAAAAAAAAAAAAAAAAAAAAAAAAAAAAAAAAAAAAAAAAAAAAAAAAAAAAAAAAAAAAAAAAAAAAAAAAAAAAAAAAAAAAAAAAAAAAAAAAAAAAAAAAAAAAAAAAAAAAAAAAAAAAAAAAAAAAAAAAAAAAAAAAAAAAAAAAAAAAAAAAAAAAAAAAAAAAAAAAAAAAAAAAAAAAAAAAAAAAAAAAAAAAAAAAAAAAAAAAAAAAAAAAAAAAAAAAAAAAAAAAAAAAAAAAAAAAAAAAAAAAAAAAAAAAAAAAAAAAAAAAAAAAAAAAAAAAAAAAAAAAAAAAAAAAAAAAAAAAAAAAAAAAAAAAAAAAAAAAAAAAAAAAAAAAAAAAAAAAAAAAAAAAAAAAAAAAAAAAAAAAAAAAAAAAAAAAAAAAAAAAAAAAAAAAAAAAAAAAAAAAAAAAAAAAAAAAAAAAAAAAAAAAAAAAAAAAAAAAAAAAAAAAAAAAAAAAAAAAAAAAAAAAAAAAAAAAAAAAAAAAAAAAAAAAAAAAAAAAAAAAAAAAAAAAAAAAAAAAAAAAAAAAAAAAAAAAAAAAAAAAAAAAAAAAAAAAAAAAAAAAAAAAAAAAAAAAAAAAAAAAAAAAAAAAAAAAAAAAAAAAAAAAAAAAAAAAAAAAAAAAAAAAAAAAAAAAAAAAAAAAAAAAAAAAAAAAAAAAAAAAAAAAAAAAAAAAAAAAAAAAAAAAAAAAAAAAAAAAAAAAAAAAAAAAAAAAAAAAAAAAAAAAAAAAAAAAAAAAAAAAAAAAAAAAAAAAAAAAAAAAAAAAAAAAAAAAAAAAAAAAAAAAAAAAAAAAAAAAAAAAAAAAAAAAAAAAAAAAAAAAAAAAAAAAAAAAAAAAAAAAAAAAAAAAAAAAAAAAAAAAAAAAAAAAAAAAAAAAAAAAAAAAAAAAAAAAAAAAAAAAAAAAAAAAAAAAAAAAAAAAAAAAAAAAAAAAAAAAAAAAAAAAAAAAAAAAAAAAAAAAAAAAAAAAAAAAAAAAAAAAAAAAAAAAAAAAAAAAAAAAAAAAAAAAAAAAAAAAAAAAAAAAAAAAAAAAAAAAAAAAAAAAAAAAAAAAAAAAAAAAAAAAAAAAAAAAAAAAAAAAAAAAAAAAAAAAAAAAAAAAAAAAAAAAAAAAAAAAAAAAAAAAAAAAAAAAAAAAAAAAAAAAAAAAAAAAAAAAAAAAAAAAAAAAAAAAAAAAAAAAAAAAAAAAAAAAAAAAAAAAAAAAAAAAAAAAAAAAAAAAAAAAAAAAAAAAAAAAAAAAAAAAAAAAAAAAAAAAAAAAAAAAAAAAAAAAAAAAAAAAAAAAAAAAAAAAAAAAAAAAAAAAAAAAAAAAAAAAAAAAAAAAAAAAAAAAAAAAAAAAAAAAAAAAAAAAAAAAAAAAAAAAAAAAAAAAAAAAAAAAAAAAAAAAAAAAAAAAAAAAAAAAAAAAAAAAAAAAAAAAAAAAAAAAAAAAAAAAAAAAAAAAAAAAAAAAAAAAAAAAAAAAAAAAAAAAAAAAAAAAAAAAAAAAAAAAAAAAAAAAAAAAAAAAAAAAAAAAAAAAAAAAAAAAAAAAAAAAAAAAAAAAAAAAAAAAAAAAAAAAAAAAAAAAAAAAAAAAAAAAAAAAAAAAAAAAAAAAAAAAAAAAAAAAAAAAAAAAAAAAAAAAAAAAAAAAAAAAAAAAAAAAAAAAAAAAAAAAAAAAAAAAAAAAAAAAAAAAAAAAAAAAAAAAAAAAAAAAAAAAAAAAAAAAAAAAAAAAAAAAAAAAAAAAAAAAAAAAAAAAAAAAAAAAAAAAAAAAAAAAAAAAAAAAAAAAAAAAAAAAAAAAAAAAAAAAAAAAAAAAAAAAAAAAAAAAAAAAAAAAAAAAAAAAAAAAAAAAAAAAAAAAAAAAAAAAAAAAAAAAAAAAAAAAAAAAAAAAAAAAAAAAAAAAAAAAAAAAAAAAAAAAAAAAAAAAAAAAAAAAAAAAAAAAAAAAAAAAAAAAAAAAAAAAAAAAAAAAAAAAAAAAAAAAAAAAAAAAAAAAAAAAAAAAAAAAAAAAAAAAAAAAAAAAAAAAAAAAAAAAAAAAAAAAAAAAAAAAAAAAAAAAAAAAAAAAAAAAAAAAAAAAAAAAAAAAAAAAAAAAAAAAAAAAAAAAAAAAAAAAAAAAAAAAAAAAAAAAAAAAAAAAAAAAAAAAAAAAAAAAAAAAAAAAAAAAAAAAAAAAAAAAAAAAAAAAAAAAAAAAAAAAAAAAAAAAAAAAAAAAAAAAAAAAAAAAAAAAAAAAAAAAAAAAAAAAAAAAAAAAAAAAAAAAAAAAAAAAAAAAAAAAAAAAAAAAAAAAAAAAAAAAAAAAAAAAAAAAAAAAAAAAAAAAAAAAAAAAAAAAAAAAAAAAAAAAAAAAAAAAAAAAAAAAAAAAAAAAAAAAAAAAAAAAAAAAAAAAAAAAAAAAAAAAAAAAAAAAAAAAAAAAAAAAAAAAAAAAAAAAAAAAAAAAAAAAAAAAAAAAAAAAAAAAAAAAAAAAAAAAAAAAAAAAAAAAAAAAAAAAAAAAAAAAAAAAAAAAAAAAAAAAAAAAAAAAAAAAAAAAAAAAAAAAAAAAAAAAAAAAAAAAAAAAAAAAAAAAAAAAAAAAAAAAAAAAAAAAAAAAAAAAAAAAAAAAAAAAAAAAAAAAAAAAAAAAAAAAAAAAAAAAAAAAAAAAAD2WQIAijCYiZBSyXjZ04z1Dj2uriVQYGRa+y2wk/a3zMqdmb91zezWMzffvucMuNuA51xB+sL4M1+Ztn8tWV3Ni0506hOZiSNRCkTDzHjRgjN0aCBHisJo5s4GemwBtDAVnfiGnd6jbnPd8TiidIZdO7uNCbgIdClNcCktXEO6WEVa1G+A2hxv/7ekddlRqc5RBGPeMjb2GQua6xAZOkIqat5UhdXFqfjRXznaS6KMqG9JK9vwIyVB+9/0gy+lft20tOGfCZ15J5ISX5gip4rkWfTsvN2lbzD+y65j3I2iMKRk984pORBwOpIJXrbhl47cF6htL8mlMFnHxRrn1AhFcoZbbALMSGgsbFOb35tPXRZws187nLthTPGIRgv6vbo1EH5j1ufWgeS0b4TWGaN+W1aYjVxePaf15mY5W01bDtsXzsdQlTGQL+FeKoBFUB+kQXDrJJjrJ/jytLXWdeHjC7frCm5mKmpwN6I5GYHJTh1MHXAi/jIybjU03c4dc81ux+8oU5kciB5yLOqttZg2ArE2cTrNqjVJceJw0zHoYtsOme/QdLGQOvruLCzxWKP5RxzTsjvzXeD09Kigu+cc9apt9IIfPWKLOam+Oxa1vo9m2q7Jn0V9RvzQCBSNJ7I4ucQovh1vnTEtMh52XXcLqoOlZxVlH0VIJvVZzI7eO7/1FR8=</c2pa:manifest><ContainsAiGeneratedContent>Yes</ContainsAiGeneratedContent></metadata><defs><g/><clipPath id="b048cc114e"><path d="M 121.871094 586.097656 L 399.859375 586.097656 L 399.859375 914 L 121.871094 914 Z M 121.871094 586.097656 " clip-rule="nonzero"/></clipPath><clipPath id="4fd0b667a4"><path d="M 260.863281 586.097656 C 184.101562 586.097656 121.871094 659.316406 121.871094 749.632812 C 121.871094 839.949219 184.101562 913.167969 260.863281 913.167969 C 337.628906 913.167969 399.859375 839.949219 399.859375 749.632812 C 399.859375 659.316406 337.628906 586.097656 260.863281 586.097656 Z M 260.863281 586.097656 " clip-rule="nonzero"/></clipPath><clipPath id="acee8102aa"><path d="M 0.871094 0.0976562 L 278.859375 0.0976562 L 278.859375 327 L 0.871094 327 Z M 0.871094 0.0976562 " clip-rule="nonzero"/></clipPath><clipPath id="1a29fc43a9"><path d="M 139.863281 0.0976562 C 63.101562 0.0976562 0.871094 73.316406 0.871094 163.632812 C 0.871094 253.949219 63.101562 327.167969 139.863281 327.167969 C 216.628906 327.167969 278.859375 253.949219 278.859375 163.632812 C 278.859375 73.316406 216.628906 0.0976562 139.863281 0.0976562 Z M 139.863281 0.0976562 " clip-rule="nonzero"/></clipPath><clipPath id="47ca1db2bd"><rect x="0" width="279" y="0" height="328"/></clipPath><clipPath id="95bca35613"><path d="M 94.234375 570.320312 L 399.859375 570.320312 L 399.859375 902.210938 L 94.234375 902.210938 Z M 94.234375 570.320312 " clip-rule="nonzero"/></clipPath><clipPath id="f96af0a356"><path d="M 247.046875 570.320312 C 162.652344 570.320312 94.234375 644.613281 94.234375 736.257812 C 94.234375 827.902344 162.652344 902.195312 247.046875 902.195312 C 331.445312 902.195312 399.859375 827.902344 399.859375 736.257812 C 399.859375 644.613281 331.445312 570.320312 247.046875 570.320312 Z M 247.046875 570.320312 " clip-rule="nonzero"/></clipPath><clipPath id="fa8381a449"><path d="M 0.234375 0.320312 L 305.859375 0.320312 L 305.859375 332.210938 L 0.234375 332.210938 Z M 0.234375 0.320312 " clip-rule="nonzero"/></clipPath><clipPath id="cbbc066c78"><path d="M 153.046875 0.320312 C 68.652344 0.320312 0.234375 74.613281 0.234375 166.257812 C 0.234375 257.902344 68.652344 332.195312 153.046875 332.195312 C 237.445312 332.195312 305.859375 257.902344 305.859375 166.257812 C 305.859375 74.613281 237.445312 0.320312 153.046875 0.320312 Z M 153.046875 0.320312 " clip-rule="nonzero"/></clipPath><clipPath id="5e224af36a"><rect x="0" width="306" y="0" height="333"/></clipPath><clipPath id="a362efe726"><path d="M 66.75 560.671875 L 417.75 560.671875 L 417.75 911.671875 L 66.75 911.671875 Z M 66.75 560.671875 " clip-rule="nonzero"/></clipPath></defs><g clip-path="url(#b048cc114e)"><g clip-path="url(#4fd0b667a4)"><g transform="matrix(1, 0, 0, 1, 121, 586)"><g clip-path="url(#47ca1db2bd)"><g clip-path="url(#acee8102aa)"><g clip-path="url(#1a29fc43a9)"><path fill="#ffffff" d="M 0.871094 0.0976562 L 278.859375 0.0976562 L 278.859375 326.953125 L 0.871094 326.953125 Z M 0.871094 0.0976562 " fill-opacity="1" fill-rule="nonzero"/></g></g></g></g></g></g><g clip-path="url(#95bca35613)"><g clip-path="url(#f96af0a356)"><g transform="matrix(1, 0, 0, 1, 94, 570)"><g clip-path="url(#5e224af36a)"><g clip-path="url(#fa8381a449)"><g clip-path="url(#cbbc066c78)"><path fill="#ffffff" d="M 0.234375 0.320312 L 305.859375 0.320312 L 305.859375 332.210938 L 0.234375 332.210938 Z M 0.234375 0.320312 " fill-opacity="1" fill-rule="nonzero"/></g></g></g></g></g></g><g fill="#ffffff" fill-opacity="1"><g transform="translate(464.898425, 677.251674)"><g><path d="M 1.0625 0 L 52.296875 -98.125 L 85.84375 -98.125 L 137.484375 0 L 109.34375 0 L 98.921875 -21.65625 L 39.484375 -21.65625 L 28.921875 0 Z M 47.546875 -38.4375 L 90.859375 -38.4375 L 70.390625 -80.6875 L 69.328125 -82.9375 L 69.0625 -82.9375 L 68.140625 -80.6875 Z M 47.546875 -38.4375 "/></g></g></g><g fill="#ffffff" fill-opacity="1"><g transform="translate(599.466009, 677.251674)"><g><path d="M 13.46875 0 L 13.46875 -98.125 L 38.6875 -98.125 L 38.6875 0 Z M 13.46875 0 "/></g></g></g><g fill="#ffffff" fill-opacity="1"><g transform="translate(647.667306, 677.251674)"><g/></g></g><g fill="#ffffff" fill-opacity="1"><g transform="translate(703.395931, 677.251674)"><g><path d="M 63.78125 2.375 C 50.226562 2.375 39.203125 0.769531 30.703125 -2.4375 C 22.203125 -5.65625 15.925781 -9.925781 11.875 -15.25 C 7.832031 -20.582031 5.632812 -26.328125 5.28125 -32.484375 L 29.84375 -32.484375 C 30.113281 -29.222656 31.28125 -26.296875 33.34375 -23.703125 C 35.414062 -21.109375 38.867188 -19.039062 43.703125 -17.5 C 48.546875 -15.957031 55.238281 -15.1875 63.78125 -15.1875 C 74.257812 -15.1875 81.832031 -16.242188 86.5 -18.359375 C 91.164062 -20.472656 93.5 -23.550781 93.5 -27.59375 C 93.5 -29.363281 93.144531 -30.90625 92.4375 -32.21875 C 91.738281 -33.539062 90.285156 -34.707031 88.078125 -35.71875 C 85.878906 -36.726562 82.535156 -37.628906 78.046875 -38.421875 C 73.554688 -39.222656 67.523438 -40.019531 59.953125 -40.8125 C 49.304688 -41.863281 40.632812 -43.359375 33.9375 -45.296875 C 27.25 -47.234375 22.144531 -49.546875 18.625 -52.234375 C 15.101562 -54.921875 12.679688 -57.910156 11.359375 -61.203125 C 10.035156 -64.503906 9.375 -68.050781 9.375 -71.84375 C 9.375 -75.539062 10.273438 -79.082031 12.078125 -82.46875 C 13.890625 -85.863281 16.796875 -88.898438 20.796875 -91.578125 C 24.804688 -94.265625 30.085938 -96.378906 36.640625 -97.921875 C 43.203125 -99.460938 51.28125 -100.234375 60.875 -100.234375 C 73.46875 -100.234375 83.703125 -98.734375 91.578125 -95.734375 C 99.460938 -92.742188 105.40625 -88.671875 109.40625 -83.515625 C 113.414062 -78.367188 115.726562 -72.453125 116.34375 -65.765625 L 92.84375 -65.765625 C 92.394531 -68.753906 91.179688 -71.523438 89.203125 -74.078125 C 87.222656 -76.640625 84.078125 -78.710938 79.765625 -80.296875 C 75.453125 -81.878906 69.507812 -82.671875 61.9375 -82.671875 C 55.15625 -82.671875 49.785156 -82.164062 45.828125 -81.15625 C 41.867188 -80.144531 39.050781 -78.78125 37.375 -77.0625 C 35.695312 -75.34375 34.859375 -73.425781 34.859375 -71.3125 C 34.859375 -69.90625 35.125 -68.582031 35.65625 -67.34375 C 36.1875 -66.113281 37.351562 -64.945312 39.15625 -63.84375 C 40.957031 -62.75 43.707031 -61.78125 47.40625 -60.9375 C 51.101562 -60.101562 56.078125 -59.378906 62.328125 -58.765625 C 72.453125 -57.796875 80.90625 -56.539062 87.6875 -55 C 94.46875 -53.457031 99.925781 -51.71875 104.0625 -49.78125 C 108.195312 -47.84375 111.34375 -45.726562 113.5 -43.4375 C 115.664062 -41.15625 117.097656 -38.738281 117.796875 -36.1875 C 118.503906 -33.632812 118.859375 -30.992188 118.859375 -28.265625 C 118.859375 -17.867188 114.125 -10.160156 104.65625 -5.140625 C 95.195312 -0.128906 81.570312 2.375 63.78125 2.375 Z M 63.78125 2.375 "/></g></g></g><g fill="#ffffff" fill-opacity="1"><g transform="translate(823.701203, 677.251674)"><g><path d="M 69.859375 2.375 C 55.503906 2.375 43.90625 0.570312 35.0625 -3.03125 C 26.21875 -6.644531 19.769531 -12.015625 15.71875 -19.140625 C 11.664062 -26.273438 9.640625 -35.125 9.640625 -45.6875 L 9.640625 -98.125 L 35 -98.125 L 35 -45.953125 C 35 -25.703125 46.664062 -15.578125 70 -15.578125 C 93.238281 -15.578125 104.859375 -25.660156 104.859375 -45.828125 L 104.859375 -98.125 L 130.21875 -98.125 L 130.21875 -45.5625 C 130.21875 -35.175781 128.210938 -26.414062 124.203125 -19.28125 C 120.203125 -12.144531 113.796875 -6.75 104.984375 -3.09375 C 96.179688 0.550781 84.472656 2.375 69.859375 2.375 Z M 69.859375 2.375 "/></g></g></g><g fill="#ffffff" fill-opacity="1"><g transform="translate(959.721409, 677.251674)"><g><path d="M 13.46875 0 L 13.46875 -98.125 L 81.09375 -98.125 C 96.320312 -98.125 107.941406 -95.238281 115.953125 -89.46875 C 123.960938 -83.707031 127.96875 -75.5 127.96875 -64.84375 C 127.96875 -54.1875 124.003906 -45.664062 116.078125 -39.28125 C 108.160156 -32.90625 96.539062 -29.71875 81.21875 -29.71875 L 38.6875 -29.71875 L 38.6875 0 Z M 38.6875 -48.078125 L 82.015625 -48.078125 C 89.234375 -48.078125 94.445312 -49.613281 97.65625 -52.6875 C 100.875 -55.769531 102.484375 -59.691406 102.484375 -64.453125 C 102.484375 -68.585938 100.875 -72.171875 97.65625 -75.203125 C 94.445312 -78.242188 89.1875 -79.765625 81.875 -79.765625 L 38.6875 -79.765625 Z M 38.6875 -48.078125 "/></g></g></g><g fill="#ffffff" fill-opacity="1"><g transform="translate(1086.761663, 677.251674)"><g><path d="M 13.46875 0 L 13.46875 -98.125 L 116.484375 -98.125 L 116.484375 -79.765625 L 38.6875 -79.765625 L 38.6875 -58.90625 L 110.9375 -58.90625 L 110.9375 -42 L 38.6875 -42 L 38.6875 -18.359375 L 117.53125 -18.359375 L 117.53125 0 Z M 13.46875 0 "/></g></g></g><g fill="#ffffff" fill-opacity="1"><g transform="translate(1205.482249, 677.251674)"><g><path d="M 13.46875 0 L 13.46875 -98.125 L 81.21875 -98.125 C 92.488281 -98.125 101.535156 -96.867188 108.359375 -94.359375 C 115.179688 -91.847656 120.132812 -88.4375 123.21875 -84.125 C 126.300781 -79.8125 127.84375 -74.835938 127.84375 -69.203125 C 127.84375 -62.066406 125.550781 -56.273438 120.96875 -51.828125 C 116.394531 -47.390625 110.1875 -44.421875 102.34375 -42.921875 L 102.34375 -42.78125 C 106.039062 -41.988281 109.125 -40.910156 111.59375 -39.546875 C 114.0625 -38.179688 116.109375 -36.175781 117.734375 -33.53125 C 119.359375 -30.894531 120.703125 -27.15625 121.765625 -22.3125 L 123.34375 -15.71875 C 124.3125 -11.75 125.171875 -8.664062 125.921875 -6.46875 C 126.671875 -4.269531 127.570312 -2.113281 128.625 0 L 102.484375 0 C 101.867188 -1.226562 101.226562 -2.8125 100.5625 -4.75 C 99.90625 -6.6875 99.09375 -9.8125 98.125 -14.125 L 96.40625 -21.390625 C 95.875 -23.941406 94.769531 -26.03125 93.09375 -27.65625 C 91.425781 -29.289062 88.894531 -30.484375 85.5 -31.234375 C 82.113281 -31.984375 77.472656 -32.359375 71.578125 -32.359375 L 38.6875 -32.359375 L 38.6875 0 Z M 38.6875 -49.921875 L 79.234375 -49.921875 C 86.546875 -49.921875 92.25 -51.21875 96.34375 -53.8125 C 100.4375 -56.414062 102.484375 -60.398438 102.484375 -65.765625 C 102.484375 -70.078125 100.785156 -73.488281 97.390625 -76 C 94.003906 -78.507812 88.4375 -79.765625 80.6875 -79.765625 L 38.6875 -79.765625 Z M 38.6875 -49.921875 "/></g></g></g><g fill="#ffffff" fill-opacity="1"><g transform="translate(464.898425, 906.751654)"><g><path d="M 107.234375 4 C 84.441406 4 65.90625 1.292969 51.625 -4.109375 C 37.34375 -9.515625 26.796875 -16.691406 19.984375 -25.640625 C 13.171875 -34.597656 9.46875 -44.257812 8.875 -54.625 L 50.171875 -54.625 C 50.617188 -49.144531 52.582031 -44.222656 56.0625 -39.859375 C 59.539062 -35.492188 65.347656 -32.015625 73.484375 -29.421875 C 81.628906 -26.828125 92.878906 -25.53125 107.234375 -25.53125 C 124.847656 -25.53125 137.578125 -27.304688 145.421875 -30.859375 C 153.273438 -34.410156 157.203125 -39.59375 157.203125 -46.40625 C 157.203125 -49.363281 156.609375 -51.953125 155.421875 -54.171875 C 154.234375 -56.390625 151.789062 -58.347656 148.09375 -60.046875 C 144.394531 -61.753906 138.769531 -63.273438 131.21875 -64.609375 C 123.664062 -65.941406 113.523438 -67.273438 100.796875 -68.609375 C 82.890625 -70.378906 68.3125 -72.894531 57.0625 -76.15625 C 45.8125 -79.414062 37.222656 -83.300781 31.296875 -87.8125 C 25.378906 -92.320312 21.3125 -97.351562 19.09375 -102.90625 C 16.875 -108.457031 15.765625 -114.414062 15.765625 -120.78125 C 15.765625 -127 17.28125 -132.957031 20.3125 -138.65625 C 23.351562 -144.351562 28.238281 -149.457031 34.96875 -153.96875 C 41.707031 -158.488281 50.585938 -162.039062 61.609375 -164.625 C 72.640625 -167.21875 86.222656 -168.515625 102.359375 -168.515625 C 123.523438 -168.515625 140.726562 -166 153.96875 -160.96875 C 167.21875 -155.9375 177.210938 -149.09375 183.953125 -140.4375 C 190.691406 -131.78125 194.578125 -121.828125 195.609375 -110.578125 L 156.09375 -110.578125 C 155.351562 -115.609375 153.316406 -120.269531 149.984375 -124.5625 C 146.648438 -128.851562 141.359375 -132.328125 134.109375 -134.984375 C 126.859375 -137.648438 116.863281 -138.984375 104.125 -138.984375 C 92.726562 -138.984375 83.695312 -138.132812 77.03125 -136.4375 C 70.375 -134.738281 65.640625 -132.441406 62.828125 -129.546875 C 60.015625 -126.660156 58.609375 -123.441406 58.609375 -119.890625 C 58.609375 -117.523438 59.050781 -115.304688 59.9375 -113.234375 C 60.832031 -111.160156 62.796875 -109.195312 65.828125 -107.34375 C 68.867188 -105.5 73.492188 -103.875 79.703125 -102.46875 C 85.921875 -101.0625 94.285156 -99.835938 104.796875 -98.796875 C 121.816406 -97.171875 136.023438 -95.0625 147.421875 -92.46875 C 158.828125 -89.882812 168.003906 -86.960938 174.953125 -83.703125 C 181.910156 -80.453125 187.203125 -76.898438 190.828125 -73.046875 C 194.460938 -69.203125 196.867188 -65.128906 198.046875 -60.828125 C 199.234375 -56.535156 199.828125 -52.097656 199.828125 -47.515625 C 199.828125 -30.046875 191.867188 -17.09375 175.953125 -8.65625 C 160.046875 -0.21875 137.140625 4 107.234375 4 Z M 107.234375 4 "/></g></g></g><g fill="#ffffff" fill-opacity="1"><g transform="translate(697.807763, 906.751654)"><g><path d="M 22.640625 0 L 22.640625 -164.96875 L 65.0625 -164.96875 L 65.0625 -99.46875 L 106.359375 -99.46875 L 159.203125 -164.96875 L 209.59375 -164.96875 L 141.65625 -84.8125 L 141.65625 -83.484375 L 218.921875 0 L 168.75 0 L 106.359375 -68.390625 L 65.0625 -68.390625 L 65.0625 0 Z M 22.640625 0 "/></g></g></g><g fill="#ffffff" fill-opacity="1"><g transform="translate(943.594809, 906.751654)"><g><path d="M 22.640625 0 L 22.640625 -164.96875 L 65.0625 -164.96875 L 65.0625 0 Z M 22.640625 0 "/></g></g></g><g fill="#ffffff" fill-opacity="1"><g transform="translate(1055.275997, 906.751654)"><g><path d="M 22.640625 0 L 22.640625 -164.96875 L 65.0625 -164.96875 L 65.0625 -30.859375 L 181.40625 -30.859375 L 181.40625 0 Z M 22.640625 0 "/></g></g></g><g fill="#ffffff" fill-opacity="1"><g transform="translate(1268.202644, 906.751654)"><g><path d="M 22.640625 0 L 22.640625 -164.96875 L 65.0625 -164.96875 L 65.0625 -30.859375 L 181.40625 -30.859375 L 181.40625 0 Z M 22.640625 0 "/></g></g></g><path fill="#38b6ff" d="M 213.128906 775.804688 L 197.972656 775.804688 C 190.953125 775.804688 185.035156 769.890625 185.035156 762.867188 L 185.035156 735.882812 C 185.035156 728.859375 190.953125 722.945312 197.972656 722.945312 L 213.128906 722.945312 C 220.152344 722.945312 226.066406 728.859375 226.066406 735.882812 L 226.066406 762.867188 C 226.066406 769.890625 220.523438 775.804688 213.128906 775.804688 Z M 213.128906 775.804688 " fill-opacity="1" fill-rule="nonzero"/><path fill="#38b6ff" d="M 277.816406 775.804688 L 262.664062 775.804688 C 255.640625 775.804688 249.726562 769.890625 249.726562 762.867188 L 249.726562 735.882812 C 249.726562 728.859375 255.640625 722.945312 262.664062 722.945312 L 277.816406 722.945312 C 284.839844 722.945312 290.753906 728.859375 290.753906 735.882812 L 290.753906 762.867188 C 290.753906 769.890625 284.839844 775.804688 277.816406 775.804688 Z M 277.816406 775.804688 " fill-opacity="1" fill-rule="nonzero"/><g clip-path="url(#a362efe726)"><path fill="#38b6ff" d="M 242.332031 560.671875 C 145.484375 560.671875 66.75 639.40625 66.75 736.253906 C 66.75 833.097656 145.484375 911.835938 242.332031 911.835938 L 390.191406 911.835938 C 405.714844 911.835938 417.914062 899.265625 417.914062 884.109375 L 417.914062 736.253906 C 417.914062 639.40625 339.179688 560.671875 242.332031 560.671875 Z M 365.425781 761.019531 C 365.425781 772.476562 356.183594 781.347656 345.09375 781.347656 L 335.851562 781.347656 C 335.113281 781.347656 334.003906 781.347656 333.265625 780.980469 C 318.480469 812.398438 283.363281 834.207031 242.332031 834.207031 C 201.300781 834.207031 166.183594 812.398438 151.769531 781.347656 L 142.527344 781.347656 C 131.070312 781.347656 122.195312 772.109375 122.195312 761.019531 L 122.195312 737.730469 C 122.195312 726.273438 131.4375 717.398438 142.527344 717.398438 L 151.398438 717.398438 C 163.96875 690.785156 192.058594 670.824219 226.066406 666.019531 L 226.066406 643.839844 C 219.042969 639.773438 214.238281 632.382812 214.238281 623.511719 C 214.238281 610.574219 224.589844 600.222656 237.527344 600.222656 C 250.464844 600.222656 260.8125 610.574219 260.8125 623.511719 C 260.8125 632.011719 256.007812 639.773438 248.984375 643.839844 L 248.984375 664.910156 C 287.058594 667.496094 318.847656 688.199219 332.527344 717.398438 C 333.265625 717.398438 334.375 717.03125 335.113281 717.03125 L 344.355469 717.03125 C 355.8125 717.03125 364.683594 726.273438 364.683594 737.359375 L 364.683594 761.019531 Z M 365.425781 761.019531 " fill-opacity="1" fill-rule="nonzero"/></g></svg>
